<?xml version="1.0" encoding="UTF-8"?>
<svg id="Layer_1_xA0_Image" xmlns="http://www.w3.org/2000/svg" version="1.1" xmlns:xlink="http://www.w3.org/1999/xlink" viewBox="0 0 5628 3072">
  <!-- Generator: Adobe Illustrator 30.2.1, SVG Export Plug-In . SVG Version: 2.1.1 Build 1)  -->
  <image id="bg" width="5628" height="3072" xlink:href="../assets/rooms/garden_1.png" isolation="isolate"/>
  <path id="tree" class="game-item" d="M2464.02,741.43s-93.12,20.61-53.43-151.12,74.41-315.99,74.41-315.99c0,0,100,260.65,85.11,322.09s-4.2,146.93-43.51,150.36-62.59-5.34-62.59-5.34h.01Z" fill="transparent"/>
  <circle id="big_gear" class="game-item" cx="1017.66" cy="2059.18" r="112.96" fill="transparent"/>
  <ellipse id="pile" class="game-item" cx="3519.98" cy="1041.77" rx="69.46" ry="72.89" fill="transparent"/>
  <rect id="big_pile" class="game-item" x="4526.75" y="1652.57" width="219.82" height="112.32" transform="translate(48.23 3543.03) rotate(-42.02)" fill="transparent"/>
  <image id="tennis ball" class="game-item" width="134" height="53" transform="translate(2383.44 835.77) scale(1.07)" xlink:href="../assets/rooms/tennis_ball_room.png" isolation="isolate"/>
  <image id="crowbar" class="game-item" width="184" height="144" transform="translate(3036.13 1545.32) scale(.75)" xlink:href="../assets/rooms/crowbar_room.png" isolation="isolate"/>
  <image id="key" class="game-item" width="18" height="9" transform="translate(4619.43 695.31) scale(1.4)" xlink:href="../assets/rooms/key_room.png" isolation="isolate"/>
  <image id="cuckoo" class="game-item" width="89" height="66" transform="translate(5118.94 1929.74) scale(.75)" xlink:href="../assets/rooms/cuckoo_room.png" isolation="isolate"/>
  <path id="statue" class="game-item" d="M4663.16,658.83l-2.54,24.42,30.02,24.66,35.62-19.57-3.05-29.51-9.16-10.69s-12.47-30.78,14.25-44.78v-26.97l-16.28,14.25s-13.23-37.14-21.88-37.14-10.18,47.32-10.18,47.32l-15.77-3.56s2.54,15.77,8.14,21.37-9.16,40.2-9.16,40.2h-.01Z" fill="transparent"/>
  <image id="mansion's door" class="game-item" width="320" height="380" transform="translate(1257.22 718.96)" xlink:href="../assets/rooms/mansion_door.png" isolation="isolate"/> 
  <polygon id="blink" class="game-item" points="2941.16 1403.74 2896.13 1406.79 2890.78 1623.55 2972.45 1628.9 2977.03 1412.13 2941.16 1403.74" fill="transparent"/>
  <rect id="grease pot" x="1706.58" y="393.02" width="102.11" height="107.19" rx="44.95" ry="44.95" fill="transparent"/>
   <path id="dog" d="M1468,958.68s6.28-31.21-14.25-25.44-21.03,25.44-21.03,25.44l-12.21,42.4-14.93,17.3,40.03,10.86,21.71-8.14.68-62.42Z" fill="transparent"/>
 </svg>


